<svg xmlns="http://www.w3.org/2000/svg" width="48" height="48" viewBox="0 0 42 42" fill="none" role="img" aria-labelledby="strength-training-title"><title id="strength-training-title">Strength Training</title><defs>
 <linearGradient id="strength-training-face" x1="5" y1="3" x2="25" y2="31" gradientUnits="userSpaceOnUse"><stop stop-color="#FC9296"/><stop offset=".32" stop-color="#D41C22"/><stop offset="1" stop-color="#8A1360"/></linearGradient>
 <linearGradient id="strength-training-side" x1="4" y1="4" x2="31" y2="32" gradientUnits="userSpaceOnUse"><stop stop-color="#D41C22"/><stop offset=".34" stop-color="#3D082B"/><stop offset=".70" stop-color="#8A1360"/><stop offset=".87" stop-color="#F041B2"/><stop offset="1" stop-color="#3D082B"/></linearGradient>
 <linearGradient id="strength-training-rim" x1="4" y1="3" x2="29" y2="30" gradientUnits="userSpaceOnUse"><stop stop-color="#FFFFFF" stop-opacity=".95"/><stop offset=".38" stop-color="#FC9296" stop-opacity=".55"/><stop offset=".62" stop-color="#FC9296" stop-opacity=".08"/><stop offset="1" stop-color="#F041B2" stop-opacity=".85"/></linearGradient>
 <radialGradient id="strength-training-shine" cx=".22" cy=".01" r=".94" gradientTransform="scale(1 .55)"><stop stop-color="#FFFFFF" stop-opacity=".78"/><stop offset=".3" stop-color="#FFFFFF" stop-opacity=".23"/><stop offset=".72" stop-color="#FFFFFF" stop-opacity="0"/></radialGradient>
 <radialGradient id="strength-training-reflection" cx=".92" cy="1" r=".73"><stop stop-color="#F041B2" stop-opacity=".66"/><stop offset="1" stop-color="#F041B2" stop-opacity="0"/></radialGradient>
 <radialGradient id="strength-training-halo"><stop stop-color="#D41C22" stop-opacity=".31"/><stop offset=".4" stop-color="#F041B2" stop-opacity=".14"/><stop offset="1" stop-color="#F041B2" stop-opacity="0"/></radialGradient>
 <linearGradient id="strength-training-symbol" x1="8" y1="7" x2="22" y2="27" gradientUnits="userSpaceOnUse"><stop stop-color="#FFFFFF"/><stop offset="1" stop-color="#DCEBFF"/></linearGradient>
 <clipPath id="strength-training-clip"><path d="M2 10h5v-4h5v9h8V6h5v4h5v14h-5v4h-5v-9h-8v9H7v-4H2Z"/></clipPath>
 </defs><ellipse cx="22.5" cy="32.5" rx="19" ry="9.2" fill="url(#strength-training-halo)"/><g transform="matrix(1 -.075 0 1 4.0 4.4)" fill="none"><path d="M2 10h5v-4h5v9h8V6h5v4h5v14h-5v4h-5v-9h-8v9H7v-4H2Z" transform="translate(3.20 3.50)" fill="url(#strength-training-side)"/><path d="M2 10h5v-4h5v9h8V6h5v4h5v14h-5v4h-5v-9h-8v9H7v-4H2Z" transform="translate(2.88 3.15)" fill="url(#strength-training-side)"/><path d="M2 10h5v-4h5v9h8V6h5v4h5v14h-5v4h-5v-9h-8v9H7v-4H2Z" transform="translate(2.56 2.80)" fill="url(#strength-training-side)"/><path d="M2 10h5v-4h5v9h8V6h5v4h5v14h-5v4h-5v-9h-8v9H7v-4H2Z" transform="translate(2.24 2.45)" fill="url(#strength-training-side)"/><path d="M2 10h5v-4h5v9h8V6h5v4h5v14h-5v4h-5v-9h-8v9H7v-4H2Z" transform="translate(1.92 2.10)" fill="url(#strength-training-side)"/><path d="M2 10h5v-4h5v9h8V6h5v4h5v14h-5v4h-5v-9h-8v9H7v-4H2Z" transform="translate(1.60 1.75)" fill="url(#strength-training-side)"/><path d="M2 10h5v-4h5v9h8V6h5v4h5v14h-5v4h-5v-9h-8v9H7v-4H2Z" transform="translate(1.28 1.40)" fill="url(#strength-training-side)"/><path d="M2 10h5v-4h5v9h8V6h5v4h5v14h-5v4h-5v-9h-8v9H7v-4H2Z" transform="translate(0.96 1.05)" fill="url(#strength-training-side)"/><path d="M2 10h5v-4h5v9h8V6h5v4h5v14h-5v4h-5v-9h-8v9H7v-4H2Z" transform="translate(0.64 0.70)" fill="url(#strength-training-side)"/><path d="M2 10h5v-4h5v9h8V6h5v4h5v14h-5v4h-5v-9h-8v9H7v-4H2Z" transform="translate(0.32 0.35)" fill="url(#strength-training-side)"/><path d="M2 10h5v-4h5v9h8V6h5v4h5v14h-5v4h-5v-9h-8v9H7v-4H2Z" fill="url(#strength-training-face)"/><path d="M2 10h5v-4h5v9h8V6h5v4h5v14h-5v4h-5v-9h-8v9H7v-4H2Z" fill="url(#strength-training-shine)"/><path d="M2 10h5v-4h5v9h8V6h5v4h5v14h-5v4h-5v-9h-8v9H7v-4H2Z" fill="url(#strength-training-reflection)"/><g clip-path="url(#strength-training-clip)"><g transform="translate(.3 .8)" opacity=".36" fill="none" stroke="#3D082B" stroke-width="2.2" stroke-linecap="round" stroke-linejoin="round"><path d="M7 10v14M25 10v14" stroke-width="2.2"/></g><g fill="none" stroke="url(#strength-training-symbol)" stroke-width="2.2" stroke-linecap="round" stroke-linejoin="round"><path d="M7 10v14M25 10v14" stroke-width="2.2"/></g></g><path d="M2 10h5v-4h5v9h8V6h5v4h5v14h-5v4h-5v-9h-8v9H7v-4H2Z" stroke="url(#strength-training-rim)" stroke-width=".8" stroke-linejoin="round"/></g></svg>