<svg xmlns="http://www.w3.org/2000/svg" width="48" height="48" viewBox="0 0 42 42" fill="none" role="img" aria-labelledby="mind-and-brain-title"><title id="mind-and-brain-title">Mind And Brain</title><defs>
 <linearGradient id="mind-and-brain-face" x1="5" y1="3" x2="25" y2="31" gradientUnits="userSpaceOnUse"><stop stop-color="#92B0FC"/><stop offset=".32" stop-color="#1C50D4"/><stop offset="1" stop-color="#5A138A"/></linearGradient>
 <linearGradient id="mind-and-brain-side" x1="4" y1="4" x2="31" y2="32" gradientUnits="userSpaceOnUse"><stop stop-color="#1C50D4"/><stop offset=".34" stop-color="#28083D"/><stop offset=".70" stop-color="#5A138A"/><stop offset=".87" stop-color="#AA41F0"/><stop offset="1" stop-color="#28083D"/></linearGradient>
 <linearGradient id="mind-and-brain-rim" x1="4" y1="3" x2="29" y2="30" gradientUnits="userSpaceOnUse"><stop stop-color="#FFFFFF" stop-opacity=".95"/><stop offset=".38" stop-color="#92B0FC" stop-opacity=".55"/><stop offset=".62" stop-color="#92B0FC" stop-opacity=".08"/><stop offset="1" stop-color="#AA41F0" stop-opacity=".85"/></linearGradient>
 <radialGradient id="mind-and-brain-shine" cx=".22" cy=".01" r=".94" gradientTransform="scale(1 .55)"><stop stop-color="#FFFFFF" stop-opacity=".78"/><stop offset=".3" stop-color="#FFFFFF" stop-opacity=".23"/><stop offset=".72" stop-color="#FFFFFF" stop-opacity="0"/></radialGradient>
 <radialGradient id="mind-and-brain-reflection" cx=".92" cy="1" r=".73"><stop stop-color="#AA41F0" stop-opacity=".66"/><stop offset="1" stop-color="#AA41F0" stop-opacity="0"/></radialGradient>
 <radialGradient id="mind-and-brain-halo"><stop stop-color="#1C50D4" stop-opacity=".31"/><stop offset=".4" stop-color="#AA41F0" stop-opacity=".14"/><stop offset="1" stop-color="#AA41F0" stop-opacity="0"/></radialGradient>
 <linearGradient id="mind-and-brain-symbol" x1="8" y1="7" x2="22" y2="27" gradientUnits="userSpaceOnUse"><stop stop-color="#FFFFFF"/><stop offset="1" stop-color="#DCEBFF"/></linearGradient>
 <clipPath id="mind-and-brain-clip"><path d="M16 5C11 0 5 4 6 9 1 10 1 17 5 20 3 26 10 31 16 27c6 4 13-1 11-7 4-3 4-10-1-11 1-5-5-9-10-4Z"/></clipPath>
 </defs><ellipse cx="22.5" cy="32.5" rx="19" ry="9.2" fill="url(#mind-and-brain-halo)"/><g transform="matrix(1 -.075 0 1 4.0 4.4)" fill="none"><path d="M16 5C11 0 5 4 6 9 1 10 1 17 5 20 3 26 10 31 16 27c6 4 13-1 11-7 4-3 4-10-1-11 1-5-5-9-10-4Z" transform="translate(3.20 3.50)" fill="url(#mind-and-brain-side)"/><path d="M16 5C11 0 5 4 6 9 1 10 1 17 5 20 3 26 10 31 16 27c6 4 13-1 11-7 4-3 4-10-1-11 1-5-5-9-10-4Z" transform="translate(2.88 3.15)" fill="url(#mind-and-brain-side)"/><path d="M16 5C11 0 5 4 6 9 1 10 1 17 5 20 3 26 10 31 16 27c6 4 13-1 11-7 4-3 4-10-1-11 1-5-5-9-10-4Z" transform="translate(2.56 2.80)" fill="url(#mind-and-brain-side)"/><path d="M16 5C11 0 5 4 6 9 1 10 1 17 5 20 3 26 10 31 16 27c6 4 13-1 11-7 4-3 4-10-1-11 1-5-5-9-10-4Z" transform="translate(2.24 2.45)" fill="url(#mind-and-brain-side)"/><path d="M16 5C11 0 5 4 6 9 1 10 1 17 5 20 3 26 10 31 16 27c6 4 13-1 11-7 4-3 4-10-1-11 1-5-5-9-10-4Z" transform="translate(1.92 2.10)" fill="url(#mind-and-brain-side)"/><path d="M16 5C11 0 5 4 6 9 1 10 1 17 5 20 3 26 10 31 16 27c6 4 13-1 11-7 4-3 4-10-1-11 1-5-5-9-10-4Z" transform="translate(1.60 1.75)" fill="url(#mind-and-brain-side)"/><path d="M16 5C11 0 5 4 6 9 1 10 1 17 5 20 3 26 10 31 16 27c6 4 13-1 11-7 4-3 4-10-1-11 1-5-5-9-10-4Z" transform="translate(1.28 1.40)" fill="url(#mind-and-brain-side)"/><path d="M16 5C11 0 5 4 6 9 1 10 1 17 5 20 3 26 10 31 16 27c6 4 13-1 11-7 4-3 4-10-1-11 1-5-5-9-10-4Z" transform="translate(0.96 1.05)" fill="url(#mind-and-brain-side)"/><path d="M16 5C11 0 5 4 6 9 1 10 1 17 5 20 3 26 10 31 16 27c6 4 13-1 11-7 4-3 4-10-1-11 1-5-5-9-10-4Z" transform="translate(0.64 0.70)" fill="url(#mind-and-brain-side)"/><path d="M16 5C11 0 5 4 6 9 1 10 1 17 5 20 3 26 10 31 16 27c6 4 13-1 11-7 4-3 4-10-1-11 1-5-5-9-10-4Z" transform="translate(0.32 0.35)" fill="url(#mind-and-brain-side)"/><path d="M16 5C11 0 5 4 6 9 1 10 1 17 5 20 3 26 10 31 16 27c6 4 13-1 11-7 4-3 4-10-1-11 1-5-5-9-10-4Z" fill="url(#mind-and-brain-face)"/><path d="M16 5C11 0 5 4 6 9 1 10 1 17 5 20 3 26 10 31 16 27c6 4 13-1 11-7 4-3 4-10-1-11 1-5-5-9-10-4Z" fill="url(#mind-and-brain-shine)"/><path d="M16 5C11 0 5 4 6 9 1 10 1 17 5 20 3 26 10 31 16 27c6 4 13-1 11-7 4-3 4-10-1-11 1-5-5-9-10-4Z" fill="url(#mind-and-brain-reflection)"/><g clip-path="url(#mind-and-brain-clip)"><g transform="translate(.3 .8)" opacity=".36" fill="none" stroke="#28083D" stroke-width="2.2" stroke-linecap="round" stroke-linejoin="round"><path d="M6 18h6l3-9 5 15 3-6h5" stroke-width="2.6"/></g><g fill="none" stroke="url(#mind-and-brain-symbol)" stroke-width="2.2" stroke-linecap="round" stroke-linejoin="round"><path d="M6 18h6l3-9 5 15 3-6h5" stroke-width="2.6"/></g></g><path d="M16 5C11 0 5 4 6 9 1 10 1 17 5 20 3 26 10 31 16 27c6 4 13-1 11-7 4-3 4-10-1-11 1-5-5-9-10-4Z" stroke="url(#mind-and-brain-rim)" stroke-width=".8" stroke-linejoin="round"/></g></svg>