<svg xmlns="http://www.w3.org/2000/svg" width="48" height="48" viewBox="0 0 42 42" fill="none" role="img" aria-labelledby="the-electrical-grid-title"><title id="the-electrical-grid-title">The Electrical Grid</title><defs>
 <linearGradient id="the-electrical-grid-face" x1="5" y1="3" x2="25" y2="31" gradientUnits="userSpaceOnUse"><stop stop-color="#E792FC"/><stop offset=".32" stop-color="#AE1CD4"/><stop offset="1" stop-color="#23138A"/></linearGradient>
 <linearGradient id="the-electrical-grid-side" x1="4" y1="4" x2="31" y2="32" gradientUnits="userSpaceOnUse"><stop stop-color="#AE1CD4"/><stop offset=".34" stop-color="#0F083D"/><stop offset=".70" stop-color="#23138A"/><stop offset=".87" stop-color="#5841F0"/><stop offset="1" stop-color="#0F083D"/></linearGradient>
 <linearGradient id="the-electrical-grid-rim" x1="4" y1="3" x2="29" y2="30" gradientUnits="userSpaceOnUse"><stop stop-color="#FFFFFF" stop-opacity=".95"/><stop offset=".38" stop-color="#E792FC" stop-opacity=".55"/><stop offset=".62" stop-color="#E792FC" stop-opacity=".08"/><stop offset="1" stop-color="#5841F0" stop-opacity=".85"/></linearGradient>
 <radialGradient id="the-electrical-grid-shine" cx=".22" cy=".01" r=".94" gradientTransform="scale(1 .55)"><stop stop-color="#FFFFFF" stop-opacity=".78"/><stop offset=".3" stop-color="#FFFFFF" stop-opacity=".23"/><stop offset=".72" stop-color="#FFFFFF" stop-opacity="0"/></radialGradient>
 <radialGradient id="the-electrical-grid-reflection" cx=".92" cy="1" r=".73"><stop stop-color="#5841F0" stop-opacity=".66"/><stop offset="1" stop-color="#5841F0" stop-opacity="0"/></radialGradient>
 <radialGradient id="the-electrical-grid-halo"><stop stop-color="#AE1CD4" stop-opacity=".31"/><stop offset=".4" stop-color="#5841F0" stop-opacity=".14"/><stop offset="1" stop-color="#5841F0" stop-opacity="0"/></radialGradient>
 <linearGradient id="the-electrical-grid-symbol" x1="8" y1="7" x2="22" y2="27" gradientUnits="userSpaceOnUse"><stop stop-color="#FFFFFF"/><stop offset="1" stop-color="#DCEBFF"/></linearGradient>
 <clipPath id="the-electrical-grid-clip"><path d="M16 2 29 9v14L16 30 3 23V9Z"/></clipPath>
 </defs><ellipse cx="22.5" cy="32.5" rx="19" ry="9.2" fill="url(#the-electrical-grid-halo)"/><g transform="matrix(1 -.075 0 1 4.0 4.4)" fill="none"><path d="M16 2 29 9v14L16 30 3 23V9Z" transform="translate(3.20 3.50)" fill="url(#the-electrical-grid-side)"/><path d="M16 2 29 9v14L16 30 3 23V9Z" transform="translate(2.88 3.15)" fill="url(#the-electrical-grid-side)"/><path d="M16 2 29 9v14L16 30 3 23V9Z" transform="translate(2.56 2.80)" fill="url(#the-electrical-grid-side)"/><path d="M16 2 29 9v14L16 30 3 23V9Z" transform="translate(2.24 2.45)" fill="url(#the-electrical-grid-side)"/><path d="M16 2 29 9v14L16 30 3 23V9Z" transform="translate(1.92 2.10)" fill="url(#the-electrical-grid-side)"/><path d="M16 2 29 9v14L16 30 3 23V9Z" transform="translate(1.60 1.75)" fill="url(#the-electrical-grid-side)"/><path d="M16 2 29 9v14L16 30 3 23V9Z" transform="translate(1.28 1.40)" fill="url(#the-electrical-grid-side)"/><path d="M16 2 29 9v14L16 30 3 23V9Z" transform="translate(0.96 1.05)" fill="url(#the-electrical-grid-side)"/><path d="M16 2 29 9v14L16 30 3 23V9Z" transform="translate(0.64 0.70)" fill="url(#the-electrical-grid-side)"/><path d="M16 2 29 9v14L16 30 3 23V9Z" transform="translate(0.32 0.35)" fill="url(#the-electrical-grid-side)"/><path d="M16 2 29 9v14L16 30 3 23V9Z" fill="url(#the-electrical-grid-face)"/><path d="M16 2 29 9v14L16 30 3 23V9Z" fill="url(#the-electrical-grid-shine)"/><path d="M16 2 29 9v14L16 30 3 23V9Z" fill="url(#the-electrical-grid-reflection)"/><g clip-path="url(#the-electrical-grid-clip)"><g transform="translate(.3 .8)" opacity=".36" fill="none" stroke="#0F083D" stroke-width="2.2" stroke-linecap="round" stroke-linejoin="round"><path d="M16 5 8 28M16 5l8 23M8 14h16M5 22h22" stroke-width="2.4"/></g><g fill="none" stroke="url(#the-electrical-grid-symbol)" stroke-width="2.2" stroke-linecap="round" stroke-linejoin="round"><path d="M16 5 8 28M16 5l8 23M8 14h16M5 22h22" stroke-width="2.4"/></g></g><path d="M16 2 29 9v14L16 30 3 23V9Z" stroke="url(#the-electrical-grid-rim)" stroke-width=".8" stroke-linejoin="round"/></g></svg>