<svg xmlns="http://www.w3.org/2000/svg" width="48" height="48" viewBox="0 0 42 42" fill="none" role="img" aria-labelledby="water-systems-title"><title id="water-systems-title">Water Systems</title><defs>
 <linearGradient id="water-systems-face" x1="5" y1="3" x2="25" y2="31" gradientUnits="userSpaceOnUse"><stop stop-color="#92E0FC"/><stop offset=".32" stop-color="#1CA2D4"/><stop offset="1" stop-color="#1B138A"/></linearGradient>
 <linearGradient id="water-systems-side" x1="4" y1="4" x2="31" y2="32" gradientUnits="userSpaceOnUse"><stop stop-color="#1CA2D4"/><stop offset=".34" stop-color="#0C083D"/><stop offset=".70" stop-color="#1B138A"/><stop offset=".87" stop-color="#4D41F0"/><stop offset="1" stop-color="#0C083D"/></linearGradient>
 <linearGradient id="water-systems-rim" x1="4" y1="3" x2="29" y2="30" gradientUnits="userSpaceOnUse"><stop stop-color="#FFFFFF" stop-opacity=".95"/><stop offset=".38" stop-color="#92E0FC" stop-opacity=".55"/><stop offset=".62" stop-color="#92E0FC" stop-opacity=".08"/><stop offset="1" stop-color="#4D41F0" stop-opacity=".85"/></linearGradient>
 <radialGradient id="water-systems-shine" cx=".22" cy=".01" r=".94" gradientTransform="scale(1 .55)"><stop stop-color="#FFFFFF" stop-opacity=".78"/><stop offset=".3" stop-color="#FFFFFF" stop-opacity=".23"/><stop offset=".72" stop-color="#FFFFFF" stop-opacity="0"/></radialGradient>
 <radialGradient id="water-systems-reflection" cx=".92" cy="1" r=".73"><stop stop-color="#4D41F0" stop-opacity=".66"/><stop offset="1" stop-color="#4D41F0" stop-opacity="0"/></radialGradient>
 <radialGradient id="water-systems-halo"><stop stop-color="#1CA2D4" stop-opacity=".31"/><stop offset=".4" stop-color="#4D41F0" stop-opacity=".14"/><stop offset="1" stop-color="#4D41F0" stop-opacity="0"/></radialGradient>
 <linearGradient id="water-systems-symbol" x1="8" y1="7" x2="22" y2="27" gradientUnits="userSpaceOnUse"><stop stop-color="#FFFFFF"/><stop offset="1" stop-color="#DCEBFF"/></linearGradient>
 <clipPath id="water-systems-clip"><path d="M16 1C13 8 4 14 4 21a12 12 0 0 0 24 0C28 14 19 8 16 1Z"/></clipPath>
 </defs><ellipse cx="22.5" cy="32.5" rx="19" ry="9.2" fill="url(#water-systems-halo)"/><g transform="matrix(1 -.075 0 1 4.0 4.4)" fill="none"><path d="M16 1C13 8 4 14 4 21a12 12 0 0 0 24 0C28 14 19 8 16 1Z" transform="translate(3.20 3.50)" fill="url(#water-systems-side)"/><path d="M16 1C13 8 4 14 4 21a12 12 0 0 0 24 0C28 14 19 8 16 1Z" transform="translate(2.88 3.15)" fill="url(#water-systems-side)"/><path d="M16 1C13 8 4 14 4 21a12 12 0 0 0 24 0C28 14 19 8 16 1Z" transform="translate(2.56 2.80)" fill="url(#water-systems-side)"/><path d="M16 1C13 8 4 14 4 21a12 12 0 0 0 24 0C28 14 19 8 16 1Z" transform="translate(2.24 2.45)" fill="url(#water-systems-side)"/><path d="M16 1C13 8 4 14 4 21a12 12 0 0 0 24 0C28 14 19 8 16 1Z" transform="translate(1.92 2.10)" fill="url(#water-systems-side)"/><path d="M16 1C13 8 4 14 4 21a12 12 0 0 0 24 0C28 14 19 8 16 1Z" transform="translate(1.60 1.75)" fill="url(#water-systems-side)"/><path d="M16 1C13 8 4 14 4 21a12 12 0 0 0 24 0C28 14 19 8 16 1Z" transform="translate(1.28 1.40)" fill="url(#water-systems-side)"/><path d="M16 1C13 8 4 14 4 21a12 12 0 0 0 24 0C28 14 19 8 16 1Z" transform="translate(0.96 1.05)" fill="url(#water-systems-side)"/><path d="M16 1C13 8 4 14 4 21a12 12 0 0 0 24 0C28 14 19 8 16 1Z" transform="translate(0.64 0.70)" fill="url(#water-systems-side)"/><path d="M16 1C13 8 4 14 4 21a12 12 0 0 0 24 0C28 14 19 8 16 1Z" transform="translate(0.32 0.35)" fill="url(#water-systems-side)"/><path d="M16 1C13 8 4 14 4 21a12 12 0 0 0 24 0C28 14 19 8 16 1Z" fill="url(#water-systems-face)"/><path d="M16 1C13 8 4 14 4 21a12 12 0 0 0 24 0C28 14 19 8 16 1Z" fill="url(#water-systems-shine)"/><path d="M16 1C13 8 4 14 4 21a12 12 0 0 0 24 0C28 14 19 8 16 1Z" fill="url(#water-systems-reflection)"/><g clip-path="url(#water-systems-clip)"><g transform="translate(.3 .8)" opacity=".36" fill="none" stroke="#0C083D" stroke-width="2.2" stroke-linecap="round" stroke-linejoin="round"><path d="M7 18h18v9M12 18v-7h9" stroke-width="3"/><circle cx="21" cy="11" r="2.4" fill="#0C083D" stroke="none"/></g><g fill="none" stroke="url(#water-systems-symbol)" stroke-width="2.2" stroke-linecap="round" stroke-linejoin="round"><path d="M7 18h18v9M12 18v-7h9" stroke-width="3"/><circle cx="21" cy="11" r="2.4" fill="url(#water-systems-symbol)" stroke="none"/></g></g><path d="M16 1C13 8 4 14 4 21a12 12 0 0 0 24 0C28 14 19 8 16 1Z" stroke="url(#water-systems-rim)" stroke-width=".8" stroke-linejoin="round"/></g></svg>