<svg xmlns="http://www.w3.org/2000/svg" width="48" height="48" viewBox="0 0 42 42" fill="none" role="img" aria-labelledby="photonics-title"><title id="photonics-title">Photonics</title><defs>
 <linearGradient id="photonics-face" x1="5" y1="3" x2="25" y2="31" gradientUnits="userSpaceOnUse"><stop stop-color="#92FCC2"/><stop offset=".32" stop-color="#1CD46E"/><stop offset="1" stop-color="#13768A"/></linearGradient>
 <linearGradient id="photonics-side" x1="4" y1="4" x2="31" y2="32" gradientUnits="userSpaceOnUse"><stop stop-color="#1CD46E"/><stop offset=".34" stop-color="#08353D"/><stop offset=".70" stop-color="#13768A"/><stop offset=".87" stop-color="#41D3F0"/><stop offset="1" stop-color="#08353D"/></linearGradient>
 <linearGradient id="photonics-rim" x1="4" y1="3" x2="29" y2="30" gradientUnits="userSpaceOnUse"><stop stop-color="#FFFFFF" stop-opacity=".95"/><stop offset=".38" stop-color="#92FCC2" stop-opacity=".55"/><stop offset=".62" stop-color="#92FCC2" stop-opacity=".08"/><stop offset="1" stop-color="#41D3F0" stop-opacity=".85"/></linearGradient>
 <radialGradient id="photonics-shine" cx=".22" cy=".01" r=".94" gradientTransform="scale(1 .55)"><stop stop-color="#FFFFFF" stop-opacity=".78"/><stop offset=".3" stop-color="#FFFFFF" stop-opacity=".23"/><stop offset=".72" stop-color="#FFFFFF" stop-opacity="0"/></radialGradient>
 <radialGradient id="photonics-reflection" cx=".92" cy="1" r=".73"><stop stop-color="#41D3F0" stop-opacity=".66"/><stop offset="1" stop-color="#41D3F0" stop-opacity="0"/></radialGradient>
 <radialGradient id="photonics-halo"><stop stop-color="#1CD46E" stop-opacity=".31"/><stop offset=".4" stop-color="#41D3F0" stop-opacity=".14"/><stop offset="1" stop-color="#41D3F0" stop-opacity="0"/></radialGradient>
 <linearGradient id="photonics-symbol" x1="8" y1="7" x2="22" y2="27" gradientUnits="userSpaceOnUse"><stop stop-color="#FFFFFF"/><stop offset="1" stop-color="#DCEBFF"/></linearGradient>
 <clipPath id="photonics-clip"><path d="M16 2 30 25 16 31 2 25Z"/></clipPath>
 </defs><ellipse cx="22.5" cy="32.5" rx="19" ry="9.2" fill="url(#photonics-halo)"/><g transform="matrix(1 -.075 0 1 4.0 4.4)" fill="none"><g fill="none" stroke="url(#photonics-face)" stroke-width="2.4" stroke-linecap="round" stroke-linejoin="round"><path d="M1 17h10m10-4 9-4m-9 8h9m-9 4 9 4" stroke-width="1.8"/></g><path d="M16 2 30 25 16 31 2 25Z" transform="translate(3.20 3.50)" fill="url(#photonics-side)"/><path d="M16 2 30 25 16 31 2 25Z" transform="translate(2.88 3.15)" fill="url(#photonics-side)"/><path d="M16 2 30 25 16 31 2 25Z" transform="translate(2.56 2.80)" fill="url(#photonics-side)"/><path d="M16 2 30 25 16 31 2 25Z" transform="translate(2.24 2.45)" fill="url(#photonics-side)"/><path d="M16 2 30 25 16 31 2 25Z" transform="translate(1.92 2.10)" fill="url(#photonics-side)"/><path d="M16 2 30 25 16 31 2 25Z" transform="translate(1.60 1.75)" fill="url(#photonics-side)"/><path d="M16 2 30 25 16 31 2 25Z" transform="translate(1.28 1.40)" fill="url(#photonics-side)"/><path d="M16 2 30 25 16 31 2 25Z" transform="translate(0.96 1.05)" fill="url(#photonics-side)"/><path d="M16 2 30 25 16 31 2 25Z" transform="translate(0.64 0.70)" fill="url(#photonics-side)"/><path d="M16 2 30 25 16 31 2 25Z" transform="translate(0.32 0.35)" fill="url(#photonics-side)"/><path d="M16 2 30 25 16 31 2 25Z" fill="url(#photonics-face)"/><path d="M16 2 30 25 16 31 2 25Z" fill="url(#photonics-shine)"/><path d="M16 2 30 25 16 31 2 25Z" fill="url(#photonics-reflection)"/><g clip-path="url(#photonics-clip)"><g transform="translate(.3 .8)" opacity=".36" fill="none" stroke="#08353D" stroke-width="2.2" stroke-linecap="round" stroke-linejoin="round"><path d="M3 17h8m10-4 9-4m-9 8h9m-9 4 9 4" /></g><g fill="none" stroke="url(#photonics-symbol)" stroke-width="2.2" stroke-linecap="round" stroke-linejoin="round"><path d="M3 17h8m10-4 9-4m-9 8h9m-9 4 9 4" /></g></g><path d="M16 2 30 25 16 31 2 25Z" stroke="url(#photonics-rim)" stroke-width=".8" stroke-linejoin="round"/></g></svg>