<svg xmlns="http://www.w3.org/2000/svg" width="48" height="48" viewBox="0 0 42 42" fill="none" role="img" aria-labelledby="quantum-computing-title"><title id="quantum-computing-title">Quantum Computing</title><defs>
 <linearGradient id="quantum-computing-face" x1="5" y1="3" x2="25" y2="31" gradientUnits="userSpaceOnUse"><stop stop-color="#FC92AD"/><stop offset=".32" stop-color="#D41C4A"/><stop offset="1" stop-color="#8A137A"/></linearGradient>
 <linearGradient id="quantum-computing-side" x1="4" y1="4" x2="31" y2="32" gradientUnits="userSpaceOnUse"><stop stop-color="#D41C4A"/><stop offset=".34" stop-color="#3D0836"/><stop offset=".70" stop-color="#8A137A"/><stop offset=".87" stop-color="#F041D9"/><stop offset="1" stop-color="#3D0836"/></linearGradient>
 <linearGradient id="quantum-computing-rim" x1="4" y1="3" x2="29" y2="30" gradientUnits="userSpaceOnUse"><stop stop-color="#FFFFFF" stop-opacity=".95"/><stop offset=".38" stop-color="#FC92AD" stop-opacity=".55"/><stop offset=".62" stop-color="#FC92AD" stop-opacity=".08"/><stop offset="1" stop-color="#F041D9" stop-opacity=".85"/></linearGradient>
 <radialGradient id="quantum-computing-shine" cx=".22" cy=".01" r=".94" gradientTransform="scale(1 .55)"><stop stop-color="#FFFFFF" stop-opacity=".78"/><stop offset=".3" stop-color="#FFFFFF" stop-opacity=".23"/><stop offset=".72" stop-color="#FFFFFF" stop-opacity="0"/></radialGradient>
 <radialGradient id="quantum-computing-reflection" cx=".92" cy="1" r=".73"><stop stop-color="#F041D9" stop-opacity=".66"/><stop offset="1" stop-color="#F041D9" stop-opacity="0"/></radialGradient>
 <radialGradient id="quantum-computing-halo"><stop stop-color="#D41C4A" stop-opacity=".31"/><stop offset=".4" stop-color="#F041D9" stop-opacity=".14"/><stop offset="1" stop-color="#F041D9" stop-opacity="0"/></radialGradient>
 <linearGradient id="quantum-computing-symbol" x1="8" y1="7" x2="22" y2="27" gradientUnits="userSpaceOnUse"><stop stop-color="#FFFFFF"/><stop offset="1" stop-color="#DCEBFF"/></linearGradient>
 <clipPath id="quantum-computing-clip"><path d="M10 6h12a4 4 0 0 1 4 4v12a4 4 0 0 1-4 4H10a4 4 0 0 1-4-4V10a4 4 0 0 1 4-4Z"/></clipPath>
 </defs><ellipse cx="22.5" cy="32.5" rx="19" ry="9.2" fill="url(#quantum-computing-halo)"/><g transform="matrix(1 -.075 0 1 4.0 4.4)" fill="none"><g fill="none" stroke="url(#quantum-computing-side)" stroke-width="2.8" stroke-linecap="round"><path d="M10 2v4m6-4v4m6-4v4M10 26v4m6-4v4m6-4v4M2 10h4m-4 6h4m-4 6h4m20-12h4m-4 6h4m-4 6h4" /></g><path d="M10 6h12a4 4 0 0 1 4 4v12a4 4 0 0 1-4 4H10a4 4 0 0 1-4-4V10a4 4 0 0 1 4-4Z" transform="translate(3.20 3.50)" fill="url(#quantum-computing-side)"/><path d="M10 6h12a4 4 0 0 1 4 4v12a4 4 0 0 1-4 4H10a4 4 0 0 1-4-4V10a4 4 0 0 1 4-4Z" transform="translate(2.88 3.15)" fill="url(#quantum-computing-side)"/><path d="M10 6h12a4 4 0 0 1 4 4v12a4 4 0 0 1-4 4H10a4 4 0 0 1-4-4V10a4 4 0 0 1 4-4Z" transform="translate(2.56 2.80)" fill="url(#quantum-computing-side)"/><path d="M10 6h12a4 4 0 0 1 4 4v12a4 4 0 0 1-4 4H10a4 4 0 0 1-4-4V10a4 4 0 0 1 4-4Z" transform="translate(2.24 2.45)" fill="url(#quantum-computing-side)"/><path d="M10 6h12a4 4 0 0 1 4 4v12a4 4 0 0 1-4 4H10a4 4 0 0 1-4-4V10a4 4 0 0 1 4-4Z" transform="translate(1.92 2.10)" fill="url(#quantum-computing-side)"/><path d="M10 6h12a4 4 0 0 1 4 4v12a4 4 0 0 1-4 4H10a4 4 0 0 1-4-4V10a4 4 0 0 1 4-4Z" transform="translate(1.60 1.75)" fill="url(#quantum-computing-side)"/><path d="M10 6h12a4 4 0 0 1 4 4v12a4 4 0 0 1-4 4H10a4 4 0 0 1-4-4V10a4 4 0 0 1 4-4Z" transform="translate(1.28 1.40)" fill="url(#quantum-computing-side)"/><path d="M10 6h12a4 4 0 0 1 4 4v12a4 4 0 0 1-4 4H10a4 4 0 0 1-4-4V10a4 4 0 0 1 4-4Z" transform="translate(0.96 1.05)" fill="url(#quantum-computing-side)"/><path d="M10 6h12a4 4 0 0 1 4 4v12a4 4 0 0 1-4 4H10a4 4 0 0 1-4-4V10a4 4 0 0 1 4-4Z" transform="translate(0.64 0.70)" fill="url(#quantum-computing-side)"/><path d="M10 6h12a4 4 0 0 1 4 4v12a4 4 0 0 1-4 4H10a4 4 0 0 1-4-4V10a4 4 0 0 1 4-4Z" transform="translate(0.32 0.35)" fill="url(#quantum-computing-side)"/><path d="M10 6h12a4 4 0 0 1 4 4v12a4 4 0 0 1-4 4H10a4 4 0 0 1-4-4V10a4 4 0 0 1 4-4Z" fill="url(#quantum-computing-face)"/><path d="M10 6h12a4 4 0 0 1 4 4v12a4 4 0 0 1-4 4H10a4 4 0 0 1-4-4V10a4 4 0 0 1 4-4Z" fill="url(#quantum-computing-shine)"/><path d="M10 6h12a4 4 0 0 1 4 4v12a4 4 0 0 1-4 4H10a4 4 0 0 1-4-4V10a4 4 0 0 1 4-4Z" fill="url(#quantum-computing-reflection)"/><g clip-path="url(#quantum-computing-clip)"><g transform="translate(.3 .8)" opacity=".36" fill="none" stroke="#3D0836" stroke-width="2.2" stroke-linecap="round" stroke-linejoin="round"><ellipse cx="16" cy="16" rx="11" ry="4.3"/><g transform="rotate(60 16 16)"><ellipse cx="16" cy="16" rx="11" ry="4.3"/></g><circle cx="16" cy="16" r="2.3" fill="#3D0836" stroke="none"/></g><g fill="none" stroke="url(#quantum-computing-symbol)" stroke-width="2.2" stroke-linecap="round" stroke-linejoin="round"><ellipse cx="16" cy="16" rx="11" ry="4.3"/><g transform="rotate(60 16 16)"><ellipse cx="16" cy="16" rx="11" ry="4.3"/></g><circle cx="16" cy="16" r="2.3" fill="url(#quantum-computing-symbol)" stroke="none"/></g></g><path d="M10 6h12a4 4 0 0 1 4 4v12a4 4 0 0 1-4 4H10a4 4 0 0 1-4-4V10a4 4 0 0 1 4-4Z" stroke="url(#quantum-computing-rim)" stroke-width=".8" stroke-linejoin="round"/></g></svg>