<svg xmlns="http://www.w3.org/2000/svg" width="48" height="48" viewBox="0 0 42 42" fill="none" role="img" aria-labelledby="condensed-matter-title"><title id="condensed-matter-title">Condensed Matter</title><defs>
 <linearGradient id="condensed-matter-face" x1="5" y1="3" x2="25" y2="31" gradientUnits="userSpaceOnUse"><stop stop-color="#92D0FC"/><stop offset=".32" stop-color="#1C86D4"/><stop offset="1" stop-color="#25138A"/></linearGradient>
 <linearGradient id="condensed-matter-side" x1="4" y1="4" x2="31" y2="32" gradientUnits="userSpaceOnUse"><stop stop-color="#1C86D4"/><stop offset=".34" stop-color="#10083D"/><stop offset=".70" stop-color="#25138A"/><stop offset=".87" stop-color="#5C41F0"/><stop offset="1" stop-color="#10083D"/></linearGradient>
 <linearGradient id="condensed-matter-rim" x1="4" y1="3" x2="29" y2="30" gradientUnits="userSpaceOnUse"><stop stop-color="#FFFFFF" stop-opacity=".95"/><stop offset=".38" stop-color="#92D0FC" stop-opacity=".55"/><stop offset=".62" stop-color="#92D0FC" stop-opacity=".08"/><stop offset="1" stop-color="#5C41F0" stop-opacity=".85"/></linearGradient>
 <radialGradient id="condensed-matter-shine" cx=".22" cy=".01" r=".94" gradientTransform="scale(1 .55)"><stop stop-color="#FFFFFF" stop-opacity=".78"/><stop offset=".3" stop-color="#FFFFFF" stop-opacity=".23"/><stop offset=".72" stop-color="#FFFFFF" stop-opacity="0"/></radialGradient>
 <radialGradient id="condensed-matter-reflection" cx=".92" cy="1" r=".73"><stop stop-color="#5C41F0" stop-opacity=".66"/><stop offset="1" stop-color="#5C41F0" stop-opacity="0"/></radialGradient>
 <radialGradient id="condensed-matter-halo"><stop stop-color="#1C86D4" stop-opacity=".31"/><stop offset=".4" stop-color="#5C41F0" stop-opacity=".14"/><stop offset="1" stop-color="#5C41F0" stop-opacity="0"/></radialGradient>
 <linearGradient id="condensed-matter-symbol" x1="8" y1="7" x2="22" y2="27" gradientUnits="userSpaceOnUse"><stop stop-color="#FFFFFF"/><stop offset="1" stop-color="#DCEBFF"/></linearGradient>
 <clipPath id="condensed-matter-clip"><path d="M16 2 29 9v14L16 30 3 23V9Z"/></clipPath>
 </defs><ellipse cx="22.5" cy="32.5" rx="19" ry="9.2" fill="url(#condensed-matter-halo)"/><g transform="matrix(1 -.075 0 1 4.0 4.4)" fill="none"><path d="M16 2 29 9v14L16 30 3 23V9Z" transform="translate(3.20 3.50)" fill="url(#condensed-matter-side)"/><path d="M16 2 29 9v14L16 30 3 23V9Z" transform="translate(2.88 3.15)" fill="url(#condensed-matter-side)"/><path d="M16 2 29 9v14L16 30 3 23V9Z" transform="translate(2.56 2.80)" fill="url(#condensed-matter-side)"/><path d="M16 2 29 9v14L16 30 3 23V9Z" transform="translate(2.24 2.45)" fill="url(#condensed-matter-side)"/><path d="M16 2 29 9v14L16 30 3 23V9Z" transform="translate(1.92 2.10)" fill="url(#condensed-matter-side)"/><path d="M16 2 29 9v14L16 30 3 23V9Z" transform="translate(1.60 1.75)" fill="url(#condensed-matter-side)"/><path d="M16 2 29 9v14L16 30 3 23V9Z" transform="translate(1.28 1.40)" fill="url(#condensed-matter-side)"/><path d="M16 2 29 9v14L16 30 3 23V9Z" transform="translate(0.96 1.05)" fill="url(#condensed-matter-side)"/><path d="M16 2 29 9v14L16 30 3 23V9Z" transform="translate(0.64 0.70)" fill="url(#condensed-matter-side)"/><path d="M16 2 29 9v14L16 30 3 23V9Z" transform="translate(0.32 0.35)" fill="url(#condensed-matter-side)"/><path d="M16 2 29 9v14L16 30 3 23V9Z" fill="url(#condensed-matter-face)"/><path d="M16 2 29 9v14L16 30 3 23V9Z" fill="url(#condensed-matter-shine)"/><path d="M16 2 29 9v14L16 30 3 23V9Z" fill="url(#condensed-matter-reflection)"/><g clip-path="url(#condensed-matter-clip)"><g transform="translate(.3 .8)" opacity=".36" fill="none" stroke="#10083D" stroke-width="2.2" stroke-linecap="round" stroke-linejoin="round"><path d="m8 11 8-5 8 5v12l-8 5-8-5Zm0 0 8 5 8-5M16 16v12" stroke-width="2"/></g><g fill="none" stroke="url(#condensed-matter-symbol)" stroke-width="2.2" stroke-linecap="round" stroke-linejoin="round"><path d="m8 11 8-5 8 5v12l-8 5-8-5Zm0 0 8 5 8-5M16 16v12" stroke-width="2"/></g></g><path d="M16 2 29 9v14L16 30 3 23V9Z" stroke="url(#condensed-matter-rim)" stroke-width=".8" stroke-linejoin="round"/></g></svg>