<svg xmlns="http://www.w3.org/2000/svg" width="48" height="48" viewBox="0 0 42 42" fill="none" role="img" aria-labelledby="rust-title"><title id="rust-title">Rust</title><defs>
 <linearGradient id="rust-face" x1="5" y1="3" x2="25" y2="31" gradientUnits="userSpaceOnUse"><stop stop-color="#CE92FC"/><stop offset=".32" stop-color="#831CD4"/><stop offset="1" stop-color="#13208A"/></linearGradient>
 <linearGradient id="rust-side" x1="4" y1="4" x2="31" y2="32" gradientUnits="userSpaceOnUse"><stop stop-color="#831CD4"/><stop offset=".34" stop-color="#080E3D"/><stop offset=".70" stop-color="#13208A"/><stop offset=".87" stop-color="#4153F0"/><stop offset="1" stop-color="#080E3D"/></linearGradient>
 <linearGradient id="rust-rim" x1="4" y1="3" x2="29" y2="30" gradientUnits="userSpaceOnUse"><stop stop-color="#FFFFFF" stop-opacity=".95"/><stop offset=".38" stop-color="#CE92FC" stop-opacity=".55"/><stop offset=".62" stop-color="#CE92FC" stop-opacity=".08"/><stop offset="1" stop-color="#4153F0" stop-opacity=".85"/></linearGradient>
 <radialGradient id="rust-shine" cx=".22" cy=".01" r=".94" gradientTransform="scale(1 .55)"><stop stop-color="#FFFFFF" stop-opacity=".78"/><stop offset=".3" stop-color="#FFFFFF" stop-opacity=".23"/><stop offset=".72" stop-color="#FFFFFF" stop-opacity="0"/></radialGradient>
 <radialGradient id="rust-reflection" cx=".92" cy="1" r=".73"><stop stop-color="#4153F0" stop-opacity=".66"/><stop offset="1" stop-color="#4153F0" stop-opacity="0"/></radialGradient>
 <radialGradient id="rust-halo"><stop stop-color="#831CD4" stop-opacity=".31"/><stop offset=".4" stop-color="#4153F0" stop-opacity=".14"/><stop offset="1" stop-color="#4153F0" stop-opacity="0"/></radialGradient>
 <linearGradient id="rust-symbol" x1="8" y1="7" x2="22" y2="27" gradientUnits="userSpaceOnUse"><stop stop-color="#FFFFFF"/><stop offset="1" stop-color="#DCEBFF"/></linearGradient>
 <clipPath id="rust-clip"><path d="M12 2h8l1 4 4-1 5 6-3 3v4l3 3-5 6-4-1-1 4h-8l-1-4-4 1-5-6 3-3v-4l-3-3 5-6 4 1Z"/></clipPath>
 </defs><ellipse cx="22.5" cy="32.5" rx="19" ry="9.2" fill="url(#rust-halo)"/><g transform="matrix(1 -.075 0 1 4.0 4.4)" fill="none"><path d="M12 2h8l1 4 4-1 5 6-3 3v4l3 3-5 6-4-1-1 4h-8l-1-4-4 1-5-6 3-3v-4l-3-3 5-6 4 1Z" transform="translate(3.20 3.50)" fill="url(#rust-side)"/><path d="M12 2h8l1 4 4-1 5 6-3 3v4l3 3-5 6-4-1-1 4h-8l-1-4-4 1-5-6 3-3v-4l-3-3 5-6 4 1Z" transform="translate(2.88 3.15)" fill="url(#rust-side)"/><path d="M12 2h8l1 4 4-1 5 6-3 3v4l3 3-5 6-4-1-1 4h-8l-1-4-4 1-5-6 3-3v-4l-3-3 5-6 4 1Z" transform="translate(2.56 2.80)" fill="url(#rust-side)"/><path d="M12 2h8l1 4 4-1 5 6-3 3v4l3 3-5 6-4-1-1 4h-8l-1-4-4 1-5-6 3-3v-4l-3-3 5-6 4 1Z" transform="translate(2.24 2.45)" fill="url(#rust-side)"/><path d="M12 2h8l1 4 4-1 5 6-3 3v4l3 3-5 6-4-1-1 4h-8l-1-4-4 1-5-6 3-3v-4l-3-3 5-6 4 1Z" transform="translate(1.92 2.10)" fill="url(#rust-side)"/><path d="M12 2h8l1 4 4-1 5 6-3 3v4l3 3-5 6-4-1-1 4h-8l-1-4-4 1-5-6 3-3v-4l-3-3 5-6 4 1Z" transform="translate(1.60 1.75)" fill="url(#rust-side)"/><path d="M12 2h8l1 4 4-1 5 6-3 3v4l3 3-5 6-4-1-1 4h-8l-1-4-4 1-5-6 3-3v-4l-3-3 5-6 4 1Z" transform="translate(1.28 1.40)" fill="url(#rust-side)"/><path d="M12 2h8l1 4 4-1 5 6-3 3v4l3 3-5 6-4-1-1 4h-8l-1-4-4 1-5-6 3-3v-4l-3-3 5-6 4 1Z" transform="translate(0.96 1.05)" fill="url(#rust-side)"/><path d="M12 2h8l1 4 4-1 5 6-3 3v4l3 3-5 6-4-1-1 4h-8l-1-4-4 1-5-6 3-3v-4l-3-3 5-6 4 1Z" transform="translate(0.64 0.70)" fill="url(#rust-side)"/><path d="M12 2h8l1 4 4-1 5 6-3 3v4l3 3-5 6-4-1-1 4h-8l-1-4-4 1-5-6 3-3v-4l-3-3 5-6 4 1Z" transform="translate(0.32 0.35)" fill="url(#rust-side)"/><path d="M12 2h8l1 4 4-1 5 6-3 3v4l3 3-5 6-4-1-1 4h-8l-1-4-4 1-5-6 3-3v-4l-3-3 5-6 4 1Z" fill="url(#rust-face)"/><path d="M12 2h8l1 4 4-1 5 6-3 3v4l3 3-5 6-4-1-1 4h-8l-1-4-4 1-5-6 3-3v-4l-3-3 5-6 4 1Z" fill="url(#rust-shine)"/><path d="M12 2h8l1 4 4-1 5 6-3 3v4l3 3-5 6-4-1-1 4h-8l-1-4-4 1-5-6 3-3v-4l-3-3 5-6 4 1Z" fill="url(#rust-reflection)"/><g clip-path="url(#rust-clip)"><g transform="translate(.3 .8)" opacity=".36" fill="none" stroke="#080E3D" stroke-width="2.2" stroke-linecap="round" stroke-linejoin="round"><path d="M11 24V9h7a4 4 0 0 1 0 8h-7m6 0 6 7" stroke-width="2.8"/></g><g fill="none" stroke="url(#rust-symbol)" stroke-width="2.2" stroke-linecap="round" stroke-linejoin="round"><path d="M11 24V9h7a4 4 0 0 1 0 8h-7m6 0 6 7" stroke-width="2.8"/></g></g><path d="M12 2h8l1 4 4-1 5 6-3 3v4l3 3-5 6-4-1-1 4h-8l-1-4-4 1-5-6 3-3v-4l-3-3 5-6 4 1Z" stroke="url(#rust-rim)" stroke-width=".8" stroke-linejoin="round"/></g></svg>