<svg xmlns="http://www.w3.org/2000/svg" width="48" height="48" viewBox="0 0 42 42" fill="none" role="img" aria-labelledby="islamic-philosophy-title"><title id="islamic-philosophy-title">Islamic Philosophy</title><defs>
 <linearGradient id="islamic-philosophy-face" x1="5" y1="3" x2="25" y2="31" gradientUnits="userSpaceOnUse"><stop stop-color="#DF92FC"/><stop offset=".32" stop-color="#A11CD4"/><stop offset="1" stop-color="#1A138A"/></linearGradient>
 <linearGradient id="islamic-philosophy-side" x1="4" y1="4" x2="31" y2="32" gradientUnits="userSpaceOnUse"><stop stop-color="#A11CD4"/><stop offset=".34" stop-color="#0B083D"/><stop offset=".70" stop-color="#1A138A"/><stop offset=".87" stop-color="#4B41F0"/><stop offset="1" stop-color="#0B083D"/></linearGradient>
 <linearGradient id="islamic-philosophy-rim" x1="4" y1="3" x2="29" y2="30" gradientUnits="userSpaceOnUse"><stop stop-color="#FFFFFF" stop-opacity=".95"/><stop offset=".38" stop-color="#DF92FC" stop-opacity=".55"/><stop offset=".62" stop-color="#DF92FC" stop-opacity=".08"/><stop offset="1" stop-color="#4B41F0" stop-opacity=".85"/></linearGradient>
 <radialGradient id="islamic-philosophy-shine" cx=".22" cy=".01" r=".94" gradientTransform="scale(1 .55)"><stop stop-color="#FFFFFF" stop-opacity=".78"/><stop offset=".3" stop-color="#FFFFFF" stop-opacity=".23"/><stop offset=".72" stop-color="#FFFFFF" stop-opacity="0"/></radialGradient>
 <radialGradient id="islamic-philosophy-reflection" cx=".92" cy="1" r=".73"><stop stop-color="#4B41F0" stop-opacity=".66"/><stop offset="1" stop-color="#4B41F0" stop-opacity="0"/></radialGradient>
 <radialGradient id="islamic-philosophy-halo"><stop stop-color="#A11CD4" stop-opacity=".31"/><stop offset=".4" stop-color="#4B41F0" stop-opacity=".14"/><stop offset="1" stop-color="#4B41F0" stop-opacity="0"/></radialGradient>
 <linearGradient id="islamic-philosophy-symbol" x1="8" y1="7" x2="22" y2="27" gradientUnits="userSpaceOnUse"><stop stop-color="#FFFFFF"/><stop offset="1" stop-color="#DCEBFF"/></linearGradient>
 <clipPath id="islamic-philosophy-clip"><path d="M16 7C11 4 7 4 3 5v22c5-1 9-1 13 2 4-3 8-3 13-2V5c-4-1-8-1-13 2Z"/></clipPath>
 </defs><ellipse cx="22.5" cy="32.5" rx="19" ry="9.2" fill="url(#islamic-philosophy-halo)"/><g transform="matrix(1 -.075 0 1 4.0 4.4)" fill="none"><path d="M16 7C11 4 7 4 3 5v22c5-1 9-1 13 2 4-3 8-3 13-2V5c-4-1-8-1-13 2Z" transform="translate(3.20 3.50)" fill="url(#islamic-philosophy-side)"/><path d="M16 7C11 4 7 4 3 5v22c5-1 9-1 13 2 4-3 8-3 13-2V5c-4-1-8-1-13 2Z" transform="translate(2.88 3.15)" fill="url(#islamic-philosophy-side)"/><path d="M16 7C11 4 7 4 3 5v22c5-1 9-1 13 2 4-3 8-3 13-2V5c-4-1-8-1-13 2Z" transform="translate(2.56 2.80)" fill="url(#islamic-philosophy-side)"/><path d="M16 7C11 4 7 4 3 5v22c5-1 9-1 13 2 4-3 8-3 13-2V5c-4-1-8-1-13 2Z" transform="translate(2.24 2.45)" fill="url(#islamic-philosophy-side)"/><path d="M16 7C11 4 7 4 3 5v22c5-1 9-1 13 2 4-3 8-3 13-2V5c-4-1-8-1-13 2Z" transform="translate(1.92 2.10)" fill="url(#islamic-philosophy-side)"/><path d="M16 7C11 4 7 4 3 5v22c5-1 9-1 13 2 4-3 8-3 13-2V5c-4-1-8-1-13 2Z" transform="translate(1.60 1.75)" fill="url(#islamic-philosophy-side)"/><path d="M16 7C11 4 7 4 3 5v22c5-1 9-1 13 2 4-3 8-3 13-2V5c-4-1-8-1-13 2Z" transform="translate(1.28 1.40)" fill="url(#islamic-philosophy-side)"/><path d="M16 7C11 4 7 4 3 5v22c5-1 9-1 13 2 4-3 8-3 13-2V5c-4-1-8-1-13 2Z" transform="translate(0.96 1.05)" fill="url(#islamic-philosophy-side)"/><path d="M16 7C11 4 7 4 3 5v22c5-1 9-1 13 2 4-3 8-3 13-2V5c-4-1-8-1-13 2Z" transform="translate(0.64 0.70)" fill="url(#islamic-philosophy-side)"/><path d="M16 7C11 4 7 4 3 5v22c5-1 9-1 13 2 4-3 8-3 13-2V5c-4-1-8-1-13 2Z" transform="translate(0.32 0.35)" fill="url(#islamic-philosophy-side)"/><path d="M16 7C11 4 7 4 3 5v22c5-1 9-1 13 2 4-3 8-3 13-2V5c-4-1-8-1-13 2Z" fill="url(#islamic-philosophy-face)"/><path d="M16 7C11 4 7 4 3 5v22c5-1 9-1 13 2 4-3 8-3 13-2V5c-4-1-8-1-13 2Z" fill="url(#islamic-philosophy-shine)"/><path d="M16 7C11 4 7 4 3 5v22c5-1 9-1 13 2 4-3 8-3 13-2V5c-4-1-8-1-13 2Z" fill="url(#islamic-philosophy-reflection)"/><g fill="none" stroke="url(#islamic-philosophy-rim)" stroke-width="1.6" stroke-linecap="round" stroke-linejoin="round"><path d="M16 7v22" stroke-opacity=".65"/></g><g clip-path="url(#islamic-philosophy-clip)"><g transform="translate(.3 .8)" opacity=".36" fill="none" stroke="#0B083D" stroke-width="2.2" stroke-linecap="round" stroke-linejoin="round"><path d="m16 8 3 5 6 1-4 5 1 6-6-3-6 3 1-6-4-5 6-1Z" stroke-width="2.2"/></g><g fill="none" stroke="url(#islamic-philosophy-symbol)" stroke-width="2.2" stroke-linecap="round" stroke-linejoin="round"><path d="m16 8 3 5 6 1-4 5 1 6-6-3-6 3 1-6-4-5 6-1Z" stroke-width="2.2"/></g></g><path d="M16 7C11 4 7 4 3 5v22c5-1 9-1 13 2 4-3 8-3 13-2V5c-4-1-8-1-13 2Z" stroke="url(#islamic-philosophy-rim)" stroke-width=".8" stroke-linejoin="round"/></g></svg>