<svg xmlns="http://www.w3.org/2000/svg" width="48" height="48" viewBox="0 0 42 42" fill="none" role="img" aria-labelledby="ritual-title"><title id="ritual-title">Ritual</title><defs>
 <linearGradient id="ritual-face" x1="5" y1="3" x2="25" y2="31" gradientUnits="userSpaceOnUse"><stop stop-color="#92FCF1"/><stop offset=".32" stop-color="#1CD4C0"/><stop offset="1" stop-color="#133A8A"/></linearGradient>
 <linearGradient id="ritual-side" x1="4" y1="4" x2="31" y2="32" gradientUnits="userSpaceOnUse"><stop stop-color="#1CD4C0"/><stop offset=".34" stop-color="#08193D"/><stop offset=".70" stop-color="#133A8A"/><stop offset=".87" stop-color="#4179F0"/><stop offset="1" stop-color="#08193D"/></linearGradient>
 <linearGradient id="ritual-rim" x1="4" y1="3" x2="29" y2="30" gradientUnits="userSpaceOnUse"><stop stop-color="#FFFFFF" stop-opacity=".95"/><stop offset=".38" stop-color="#92FCF1" stop-opacity=".55"/><stop offset=".62" stop-color="#92FCF1" stop-opacity=".08"/><stop offset="1" stop-color="#4179F0" stop-opacity=".85"/></linearGradient>
 <radialGradient id="ritual-shine" cx=".22" cy=".01" r=".94" gradientTransform="scale(1 .55)"><stop stop-color="#FFFFFF" stop-opacity=".78"/><stop offset=".3" stop-color="#FFFFFF" stop-opacity=".23"/><stop offset=".72" stop-color="#FFFFFF" stop-opacity="0"/></radialGradient>
 <radialGradient id="ritual-reflection" cx=".92" cy="1" r=".73"><stop stop-color="#4179F0" stop-opacity=".66"/><stop offset="1" stop-color="#4179F0" stop-opacity="0"/></radialGradient>
 <radialGradient id="ritual-halo"><stop stop-color="#1CD4C0" stop-opacity=".31"/><stop offset=".4" stop-color="#4179F0" stop-opacity=".14"/><stop offset="1" stop-color="#4179F0" stop-opacity="0"/></radialGradient>
 <linearGradient id="ritual-symbol" x1="8" y1="7" x2="22" y2="27" gradientUnits="userSpaceOnUse"><stop stop-color="#FFFFFF"/><stop offset="1" stop-color="#DCEBFF"/></linearGradient>
 <clipPath id="ritual-clip"><path d="M6 30V17h20v13ZM16 2c8 8 9 14 0 14-9 0-6-8 0-14Z"/></clipPath>
 </defs><ellipse cx="22.5" cy="32.5" rx="19" ry="9.2" fill="url(#ritual-halo)"/><g transform="matrix(1 -.075 0 1 4.0 4.4)" fill="none"><path d="M6 30V17h20v13ZM16 2c8 8 9 14 0 14-9 0-6-8 0-14Z" transform="translate(3.20 3.50)" fill="url(#ritual-side)"/><path d="M6 30V17h20v13ZM16 2c8 8 9 14 0 14-9 0-6-8 0-14Z" transform="translate(2.88 3.15)" fill="url(#ritual-side)"/><path d="M6 30V17h20v13ZM16 2c8 8 9 14 0 14-9 0-6-8 0-14Z" transform="translate(2.56 2.80)" fill="url(#ritual-side)"/><path d="M6 30V17h20v13ZM16 2c8 8 9 14 0 14-9 0-6-8 0-14Z" transform="translate(2.24 2.45)" fill="url(#ritual-side)"/><path d="M6 30V17h20v13ZM16 2c8 8 9 14 0 14-9 0-6-8 0-14Z" transform="translate(1.92 2.10)" fill="url(#ritual-side)"/><path d="M6 30V17h20v13ZM16 2c8 8 9 14 0 14-9 0-6-8 0-14Z" transform="translate(1.60 1.75)" fill="url(#ritual-side)"/><path d="M6 30V17h20v13ZM16 2c8 8 9 14 0 14-9 0-6-8 0-14Z" transform="translate(1.28 1.40)" fill="url(#ritual-side)"/><path d="M6 30V17h20v13ZM16 2c8 8 9 14 0 14-9 0-6-8 0-14Z" transform="translate(0.96 1.05)" fill="url(#ritual-side)"/><path d="M6 30V17h20v13ZM16 2c8 8 9 14 0 14-9 0-6-8 0-14Z" transform="translate(0.64 0.70)" fill="url(#ritual-side)"/><path d="M6 30V17h20v13ZM16 2c8 8 9 14 0 14-9 0-6-8 0-14Z" transform="translate(0.32 0.35)" fill="url(#ritual-side)"/><path d="M6 30V17h20v13ZM16 2c8 8 9 14 0 14-9 0-6-8 0-14Z" fill="url(#ritual-face)"/><path d="M6 30V17h20v13ZM16 2c8 8 9 14 0 14-9 0-6-8 0-14Z" fill="url(#ritual-shine)"/><path d="M6 30V17h20v13ZM16 2c8 8 9 14 0 14-9 0-6-8 0-14Z" fill="url(#ritual-reflection)"/><g clip-path="url(#ritual-clip)"><g transform="translate(.3 .8)" opacity=".36" fill="none" stroke="#08193D" stroke-width="2.2" stroke-linecap="round" stroke-linejoin="round"><path d="M10 24h12M16 14v3" stroke-width="2.4"/></g><g fill="none" stroke="url(#ritual-symbol)" stroke-width="2.2" stroke-linecap="round" stroke-linejoin="round"><path d="M10 24h12M16 14v3" stroke-width="2.4"/></g></g><path d="M6 30V17h20v13ZM16 2c8 8 9 14 0 14-9 0-6-8 0-14Z" stroke="url(#ritual-rim)" stroke-width=".8" stroke-linejoin="round"/></g></svg>