<svg xmlns="http://www.w3.org/2000/svg" width="48" height="48" viewBox="0 0 42 42" fill="none" role="img" aria-labelledby="decolonisation-title"><title id="decolonisation-title">Decolonisation</title><defs>
 <linearGradient id="decolonisation-face" x1="5" y1="3" x2="25" y2="31" gradientUnits="userSpaceOnUse"><stop stop-color="#92C7FC"/><stop offset=".32" stop-color="#1C77D4"/><stop offset="1" stop-color="#2F138A"/></linearGradient>
 <linearGradient id="decolonisation-side" x1="4" y1="4" x2="31" y2="32" gradientUnits="userSpaceOnUse"><stop stop-color="#1C77D4"/><stop offset=".34" stop-color="#15083D"/><stop offset=".70" stop-color="#2F138A"/><stop offset=".87" stop-color="#6A41F0"/><stop offset="1" stop-color="#15083D"/></linearGradient>
 <linearGradient id="decolonisation-rim" x1="4" y1="3" x2="29" y2="30" gradientUnits="userSpaceOnUse"><stop stop-color="#FFFFFF" stop-opacity=".95"/><stop offset=".38" stop-color="#92C7FC" stop-opacity=".55"/><stop offset=".62" stop-color="#92C7FC" stop-opacity=".08"/><stop offset="1" stop-color="#6A41F0" stop-opacity=".85"/></linearGradient>
 <radialGradient id="decolonisation-shine" cx=".22" cy=".01" r=".94" gradientTransform="scale(1 .55)"><stop stop-color="#FFFFFF" stop-opacity=".78"/><stop offset=".3" stop-color="#FFFFFF" stop-opacity=".23"/><stop offset=".72" stop-color="#FFFFFF" stop-opacity="0"/></radialGradient>
 <radialGradient id="decolonisation-reflection" cx=".92" cy="1" r=".73"><stop stop-color="#6A41F0" stop-opacity=".66"/><stop offset="1" stop-color="#6A41F0" stop-opacity="0"/></radialGradient>
 <radialGradient id="decolonisation-halo"><stop stop-color="#1C77D4" stop-opacity=".31"/><stop offset=".4" stop-color="#6A41F0" stop-opacity=".14"/><stop offset="1" stop-color="#6A41F0" stop-opacity="0"/></radialGradient>
 <linearGradient id="decolonisation-symbol" x1="8" y1="7" x2="22" y2="27" gradientUnits="userSpaceOnUse"><stop stop-color="#FFFFFF"/><stop offset="1" stop-color="#DCEBFF"/></linearGradient>
 <clipPath id="decolonisation-clip"><path d="M30 16a14 14 0 1 1-28 0 14 14 0 0 1 28 0Z"/></clipPath>
 </defs><ellipse cx="22.5" cy="32.5" rx="19" ry="9.2" fill="url(#decolonisation-halo)"/><g transform="matrix(1 -.075 0 1 4.0 4.4)" fill="none"><path d="M30 16a14 14 0 1 1-28 0 14 14 0 0 1 28 0Z" transform="translate(3.20 3.50)" fill="url(#decolonisation-side)"/><path d="M30 16a14 14 0 1 1-28 0 14 14 0 0 1 28 0Z" transform="translate(2.88 3.15)" fill="url(#decolonisation-side)"/><path d="M30 16a14 14 0 1 1-28 0 14 14 0 0 1 28 0Z" transform="translate(2.56 2.80)" fill="url(#decolonisation-side)"/><path d="M30 16a14 14 0 1 1-28 0 14 14 0 0 1 28 0Z" transform="translate(2.24 2.45)" fill="url(#decolonisation-side)"/><path d="M30 16a14 14 0 1 1-28 0 14 14 0 0 1 28 0Z" transform="translate(1.92 2.10)" fill="url(#decolonisation-side)"/><path d="M30 16a14 14 0 1 1-28 0 14 14 0 0 1 28 0Z" transform="translate(1.60 1.75)" fill="url(#decolonisation-side)"/><path d="M30 16a14 14 0 1 1-28 0 14 14 0 0 1 28 0Z" transform="translate(1.28 1.40)" fill="url(#decolonisation-side)"/><path d="M30 16a14 14 0 1 1-28 0 14 14 0 0 1 28 0Z" transform="translate(0.96 1.05)" fill="url(#decolonisation-side)"/><path d="M30 16a14 14 0 1 1-28 0 14 14 0 0 1 28 0Z" transform="translate(0.64 0.70)" fill="url(#decolonisation-side)"/><path d="M30 16a14 14 0 1 1-28 0 14 14 0 0 1 28 0Z" transform="translate(0.32 0.35)" fill="url(#decolonisation-side)"/><path d="M30 16a14 14 0 1 1-28 0 14 14 0 0 1 28 0Z" fill="url(#decolonisation-face)"/><path d="M30 16a14 14 0 1 1-28 0 14 14 0 0 1 28 0Z" fill="url(#decolonisation-shine)"/><path d="M30 16a14 14 0 1 1-28 0 14 14 0 0 1 28 0Z" fill="url(#decolonisation-reflection)"/><g clip-path="url(#decolonisation-clip)"><g transform="translate(.3 .8)" opacity=".36" fill="none" stroke="#15083D" stroke-width="2.2" stroke-linecap="round" stroke-linejoin="round"><path d="M13 11l-2-2C3 3-1 15 5 19l5 4m9-2 2 2c8 6 12-6 6-10l-5-4M13 20l6-8" stroke-width="2.6"/></g><g fill="none" stroke="url(#decolonisation-symbol)" stroke-width="2.2" stroke-linecap="round" stroke-linejoin="round"><path d="M13 11l-2-2C3 3-1 15 5 19l5 4m9-2 2 2c8 6 12-6 6-10l-5-4M13 20l6-8" stroke-width="2.6"/></g></g><path d="M30 16a14 14 0 1 1-28 0 14 14 0 0 1 28 0Z" stroke="url(#decolonisation-rim)" stroke-width=".8" stroke-linejoin="round"/></g></svg>