<svg xmlns="http://www.w3.org/2000/svg" width="48" height="48" viewBox="0 0 42 42" fill="none" role="img" aria-labelledby="mathematics-title"><title id="mathematics-title">Mathematics</title><defs>
 <linearGradient id="mathematics-face" x1="5" y1="3" x2="25" y2="31" gradientUnits="userSpaceOnUse"><stop stop-color="#FCCA92"/><stop offset=".32" stop-color="#D47C1C"/><stop offset="1" stop-color="#8A1A13"/></linearGradient>
 <linearGradient id="mathematics-side" x1="4" y1="4" x2="31" y2="32" gradientUnits="userSpaceOnUse"><stop stop-color="#D47C1C"/><stop offset=".34" stop-color="#3D0B08"/><stop offset=".70" stop-color="#8A1A13"/><stop offset=".87" stop-color="#F04B41"/><stop offset="1" stop-color="#3D0B08"/></linearGradient>
 <linearGradient id="mathematics-rim" x1="4" y1="3" x2="29" y2="30" gradientUnits="userSpaceOnUse"><stop stop-color="#FFFFFF" stop-opacity=".95"/><stop offset=".38" stop-color="#FCCA92" stop-opacity=".55"/><stop offset=".62" stop-color="#FCCA92" stop-opacity=".08"/><stop offset="1" stop-color="#F04B41" stop-opacity=".85"/></linearGradient>
 <radialGradient id="mathematics-shine" cx=".22" cy=".01" r=".94" gradientTransform="scale(1 .55)"><stop stop-color="#FFFFFF" stop-opacity=".78"/><stop offset=".3" stop-color="#FFFFFF" stop-opacity=".23"/><stop offset=".72" stop-color="#FFFFFF" stop-opacity="0"/></radialGradient>
 <radialGradient id="mathematics-reflection" cx=".92" cy="1" r=".73"><stop stop-color="#F04B41" stop-opacity=".66"/><stop offset="1" stop-color="#F04B41" stop-opacity="0"/></radialGradient>
 <radialGradient id="mathematics-halo"><stop stop-color="#D47C1C" stop-opacity=".31"/><stop offset=".4" stop-color="#F04B41" stop-opacity=".14"/><stop offset="1" stop-color="#F04B41" stop-opacity="0"/></radialGradient>
 <linearGradient id="mathematics-symbol" x1="8" y1="7" x2="22" y2="27" gradientUnits="userSpaceOnUse"><stop stop-color="#FFFFFF"/><stop offset="1" stop-color="#DCEBFF"/></linearGradient>
 <clipPath id="mathematics-clip"><path d="M16 2 29 9v14L16 30 3 23V9Z"/></clipPath>
 </defs><ellipse cx="22.5" cy="32.5" rx="19" ry="9.2" fill="url(#mathematics-halo)"/><g transform="matrix(1 -.075 0 1 4.0 4.4)" fill="none"><path d="M16 2 29 9v14L16 30 3 23V9Z" transform="translate(3.20 3.50)" fill="url(#mathematics-side)"/><path d="M16 2 29 9v14L16 30 3 23V9Z" transform="translate(2.88 3.15)" fill="url(#mathematics-side)"/><path d="M16 2 29 9v14L16 30 3 23V9Z" transform="translate(2.56 2.80)" fill="url(#mathematics-side)"/><path d="M16 2 29 9v14L16 30 3 23V9Z" transform="translate(2.24 2.45)" fill="url(#mathematics-side)"/><path d="M16 2 29 9v14L16 30 3 23V9Z" transform="translate(1.92 2.10)" fill="url(#mathematics-side)"/><path d="M16 2 29 9v14L16 30 3 23V9Z" transform="translate(1.60 1.75)" fill="url(#mathematics-side)"/><path d="M16 2 29 9v14L16 30 3 23V9Z" transform="translate(1.28 1.40)" fill="url(#mathematics-side)"/><path d="M16 2 29 9v14L16 30 3 23V9Z" transform="translate(0.96 1.05)" fill="url(#mathematics-side)"/><path d="M16 2 29 9v14L16 30 3 23V9Z" transform="translate(0.64 0.70)" fill="url(#mathematics-side)"/><path d="M16 2 29 9v14L16 30 3 23V9Z" transform="translate(0.32 0.35)" fill="url(#mathematics-side)"/><path d="M16 2 29 9v14L16 30 3 23V9Z" fill="url(#mathematics-face)"/><path d="M16 2 29 9v14L16 30 3 23V9Z" fill="url(#mathematics-shine)"/><path d="M16 2 29 9v14L16 30 3 23V9Z" fill="url(#mathematics-reflection)"/><g clip-path="url(#mathematics-clip)"><g transform="translate(.3 .8)" opacity=".36" fill="none" stroke="#3D0B08" stroke-width="2.2" stroke-linecap="round" stroke-linejoin="round"><path d="M7 9h18M12 9l-2 16m12-16-2 16" stroke-width="3"/></g><g fill="none" stroke="url(#mathematics-symbol)" stroke-width="2.2" stroke-linecap="round" stroke-linejoin="round"><path d="M7 9h18M12 9l-2 16m12-16-2 16" stroke-width="3"/></g></g><path d="M16 2 29 9v14L16 30 3 23V9Z" stroke="url(#mathematics-rim)" stroke-width=".8" stroke-linejoin="round"/></g></svg>