<svg xmlns="http://www.w3.org/2000/svg" width="48" height="48" viewBox="0 0 42 42" fill="none" role="img" aria-labelledby="data-and-statistics-title"><title id="data-and-statistics-title">Data And Statistics</title><defs>
 <linearGradient id="data-and-statistics-face" x1="5" y1="3" x2="25" y2="31" gradientUnits="userSpaceOnUse"><stop stop-color="#92FCE9"/><stop offset=".32" stop-color="#1CD4B3"/><stop offset="1" stop-color="#13428A"/></linearGradient>
 <linearGradient id="data-and-statistics-side" x1="4" y1="4" x2="31" y2="32" gradientUnits="userSpaceOnUse"><stop stop-color="#1CD4B3"/><stop offset=".34" stop-color="#081D3D"/><stop offset=".70" stop-color="#13428A"/><stop offset=".87" stop-color="#4186F0"/><stop offset="1" stop-color="#081D3D"/></linearGradient>
 <linearGradient id="data-and-statistics-rim" x1="4" y1="3" x2="29" y2="30" gradientUnits="userSpaceOnUse"><stop stop-color="#FFFFFF" stop-opacity=".95"/><stop offset=".38" stop-color="#92FCE9" stop-opacity=".55"/><stop offset=".62" stop-color="#92FCE9" stop-opacity=".08"/><stop offset="1" stop-color="#4186F0" stop-opacity=".85"/></linearGradient>
 <radialGradient id="data-and-statistics-shine" cx=".22" cy=".01" r=".94" gradientTransform="scale(1 .55)"><stop stop-color="#FFFFFF" stop-opacity=".78"/><stop offset=".3" stop-color="#FFFFFF" stop-opacity=".23"/><stop offset=".72" stop-color="#FFFFFF" stop-opacity="0"/></radialGradient>
 <radialGradient id="data-and-statistics-reflection" cx=".92" cy="1" r=".73"><stop stop-color="#4186F0" stop-opacity=".66"/><stop offset="1" stop-color="#4186F0" stop-opacity="0"/></radialGradient>
 <radialGradient id="data-and-statistics-halo"><stop stop-color="#1CD4B3" stop-opacity=".31"/><stop offset=".4" stop-color="#4186F0" stop-opacity=".14"/><stop offset="1" stop-color="#4186F0" stop-opacity="0"/></radialGradient>
 <linearGradient id="data-and-statistics-symbol" x1="8" y1="7" x2="22" y2="27" gradientUnits="userSpaceOnUse"><stop stop-color="#FFFFFF"/><stop offset="1" stop-color="#DCEBFF"/></linearGradient>
 <clipPath id="data-and-statistics-clip"><path d="M8 3H24a5 5 0 0 1 5 5v16a5 5 0 0 1-5 5H8a5 5 0 0 1-5-5V8a5 5 0 0 1 5-5Z"/></clipPath>
 </defs><ellipse cx="22.5" cy="32.5" rx="19" ry="9.2" fill="url(#data-and-statistics-halo)"/><g transform="matrix(1 -.075 0 1 4.0 4.4)" fill="none"><path d="M8 3H24a5 5 0 0 1 5 5v16a5 5 0 0 1-5 5H8a5 5 0 0 1-5-5V8a5 5 0 0 1 5-5Z" transform="translate(3.20 3.50)" fill="url(#data-and-statistics-side)"/><path d="M8 3H24a5 5 0 0 1 5 5v16a5 5 0 0 1-5 5H8a5 5 0 0 1-5-5V8a5 5 0 0 1 5-5Z" transform="translate(2.88 3.15)" fill="url(#data-and-statistics-side)"/><path d="M8 3H24a5 5 0 0 1 5 5v16a5 5 0 0 1-5 5H8a5 5 0 0 1-5-5V8a5 5 0 0 1 5-5Z" transform="translate(2.56 2.80)" fill="url(#data-and-statistics-side)"/><path d="M8 3H24a5 5 0 0 1 5 5v16a5 5 0 0 1-5 5H8a5 5 0 0 1-5-5V8a5 5 0 0 1 5-5Z" transform="translate(2.24 2.45)" fill="url(#data-and-statistics-side)"/><path d="M8 3H24a5 5 0 0 1 5 5v16a5 5 0 0 1-5 5H8a5 5 0 0 1-5-5V8a5 5 0 0 1 5-5Z" transform="translate(1.92 2.10)" fill="url(#data-and-statistics-side)"/><path d="M8 3H24a5 5 0 0 1 5 5v16a5 5 0 0 1-5 5H8a5 5 0 0 1-5-5V8a5 5 0 0 1 5-5Z" transform="translate(1.60 1.75)" fill="url(#data-and-statistics-side)"/><path d="M8 3H24a5 5 0 0 1 5 5v16a5 5 0 0 1-5 5H8a5 5 0 0 1-5-5V8a5 5 0 0 1 5-5Z" transform="translate(1.28 1.40)" fill="url(#data-and-statistics-side)"/><path d="M8 3H24a5 5 0 0 1 5 5v16a5 5 0 0 1-5 5H8a5 5 0 0 1-5-5V8a5 5 0 0 1 5-5Z" transform="translate(0.96 1.05)" fill="url(#data-and-statistics-side)"/><path d="M8 3H24a5 5 0 0 1 5 5v16a5 5 0 0 1-5 5H8a5 5 0 0 1-5-5V8a5 5 0 0 1 5-5Z" transform="translate(0.64 0.70)" fill="url(#data-and-statistics-side)"/><path d="M8 3H24a5 5 0 0 1 5 5v16a5 5 0 0 1-5 5H8a5 5 0 0 1-5-5V8a5 5 0 0 1 5-5Z" transform="translate(0.32 0.35)" fill="url(#data-and-statistics-side)"/><path d="M8 3H24a5 5 0 0 1 5 5v16a5 5 0 0 1-5 5H8a5 5 0 0 1-5-5V8a5 5 0 0 1 5-5Z" fill="url(#data-and-statistics-face)"/><path d="M8 3H24a5 5 0 0 1 5 5v16a5 5 0 0 1-5 5H8a5 5 0 0 1-5-5V8a5 5 0 0 1 5-5Z" fill="url(#data-and-statistics-shine)"/><path d="M8 3H24a5 5 0 0 1 5 5v16a5 5 0 0 1-5 5H8a5 5 0 0 1-5-5V8a5 5 0 0 1 5-5Z" fill="url(#data-and-statistics-reflection)"/><g clip-path="url(#data-and-statistics-clip)"><g transform="translate(.3 .8)" opacity=".36" fill="none" stroke="#081D3D" stroke-width="2.2" stroke-linecap="round" stroke-linejoin="round"><rect x="7" y="17" width="4" height="9" rx="1.2" fill="#081D3D" stroke="none"/><rect x="14" y="11" width="4" height="15" rx="1.2" fill="#081D3D" stroke="none"/><rect x="21" y="6" width="4" height="20" rx="1.2" fill="#081D3D" stroke="none"/></g><g fill="none" stroke="url(#data-and-statistics-symbol)" stroke-width="2.2" stroke-linecap="round" stroke-linejoin="round"><rect x="7" y="17" width="4" height="9" rx="1.2" fill="url(#data-and-statistics-symbol)" stroke="none"/><rect x="14" y="11" width="4" height="15" rx="1.2" fill="url(#data-and-statistics-symbol)" stroke="none"/><rect x="21" y="6" width="4" height="20" rx="1.2" fill="url(#data-and-statistics-symbol)" stroke="none"/></g></g><path d="M8 3H24a5 5 0 0 1 5 5v16a5 5 0 0 1-5 5H8a5 5 0 0 1-5-5V8a5 5 0 0 1 5-5Z" stroke="url(#data-and-statistics-rim)" stroke-width=".8" stroke-linejoin="round"/></g></svg>